<?xml version="1.0" encoding="UTF-8"?>
<!DOCTYPE svg PUBLIC "-//W3C//DTD SVG 1.1//EN" "http://www.w3.org/Graphics/SVG/1.1/DTD/svg11.dtd">
<!-- Creator: CorelDRAW -->
<svg xmlns="http://www.w3.org/2000/svg" xml:space="preserve" width="1992px" height="505px" version="1.1" style="shape-rendering:geometricPrecision; text-rendering:geometricPrecision; image-rendering:optimizeQuality; fill-rule:evenodd; clip-rule:evenodd"
viewBox="0 0 321.48 81.51"
 xmlns:xlink="http://www.w3.org/1999/xlink"
 xmlns:xodm="http://www.corel.com/coreldraw/odm/2003">
 <defs>
  <style type="text/css">
   <![CDATA[
    .fil3 {fill:#00A859}
    .fil4 {fill:#00AFEF}
    .fil0 {fill:#3266AF}
    .fil2 {fill:#FFF212}
    .fil5 {fill:#009D53;fill-rule:nonzero}
    .fil1 {fill:#3266AF;fill-rule:nonzero}
   ]]>
  </style>
 </defs>
 <g id="Camada_x0020_1">
  <metadata id="CorelCorpID_0Corel-Layer"/>
  <g id="_2757093601888">
   <path class="fil0" d="M0 59.07l0 -55.92 22.2 0c5.01,0 8.84,0.26 11.48,0.8 3.69,0.74 6.84,2.08 9.45,4.01 3.41,2.5 5.94,5.67 7.62,9.55 1.7,3.88 2.54,8.32 2.54,13.3 0,4.25 -0.57,8.01 -1.71,11.29 -1.14,3.28 -2.61,6 -4.4,8.15 -1.8,2.15 -3.75,3.84 -5.88,5.06 -2.11,1.24 -4.68,2.18 -7.68,2.81 -3.01,0.64 -6.47,0.95 -10.37,0.95l-23.25 0 0 0zm8.55 -6.56l13.74 0c4.25,0 7.58,-0.34 10,-1.03 2.41,-0.69 4.33,-1.65 5.77,-2.9 2.01,-1.76 3.59,-4.12 4.71,-7.09 1.13,-2.97 1.7,-6.56 1.7,-10.79 0,-5.86 -1.11,-10.36 -3.32,-13.51 -2.2,-3.15 -4.89,-5.26 -8.05,-6.33 -2.28,-0.77 -5.96,-1.15 -11.03,-1.15l-13.52 0 0 42.8 0 0z"/>
   <path class="fil1" d="M100.34 60.23l-16.97 -55.92 8.85 0 9.66 36.67c1.06,3.84 1.99,7.65 2.78,11.43 1.7,-5.97 2.69,-9.4 2.97,-10.31l12.18 -37.79 10.28 0 9.24 28.31c2.27,7.03 3.95,13.63 5.03,19.79 0.85,-3.53 1.95,-7.58 3.28,-12.15l10.07 -35.95 8.57 0 -17.65 55.92 -8.29 0 -13.52 -42.61c-1.14,-3.56 -1.83,-5.75 -2.09,-6.56 -0.73,2.56 -1.39,4.74 -1.96,6.55l-13.52 42.62 -8.91 0 0 0z"/>
   <polygon class="fil1" points="275.13,58.6 275.13,9.24 253.88,9.24 253.88,2.68 304.92,2.68 304.92,9.24 283.68,9.24 283.68,58.6 "/>
   <polygon class="fil0" points="67.89,3.11 69.94,3.11 69.94,58.97 67.89,58.97 "/>
   <path class="fil0" d="M177.24 39.07l0 -3.06c0,-0.73 1.37,-3.95 1.73,-4.48 0.89,-1.36 1.86,-2.38 3.12,-3.42 5.69,-4.73 15.19,-4.3 20.25,0.17 1.87,1.65 4.56,5.32 4.56,8.42l0 12.67c0,0.47 -0.12,0.53 -0.16,0.97 -6.72,0 -14.87,0.57 -20.12,-0.91 -3.2,-0.9 -6.93,-4.07 -8.11,-6.74 -0.17,-0.4 -1.27,-3.3 -1.27,-3.62zm12.98 19.9l25.66 0c0.38,0 0.64,-0.24 0.64,-0.56l0 -24.35c0,-1.65 -2.08,-5.72 -2.84,-6.99 -3.41,-5.77 -12.36,-11.1 -20.41,-11.1l-2.56 0c-6.58,0 -12.95,3.55 -16.38,6.39 -1.62,1.35 -3.88,4.14 -4.83,6.1 -1.68,3.46 -1.89,3.95 -1.89,8.8l0 0.44c0.01,4.38 0.06,5.19 1.7,8.39 1.27,2.49 2.76,4.35 4.73,6.19 1.56,1.45 4.56,3.51 6.82,4.38 1.93,0.75 6.83,2.31 9.36,2.31l0 0z"/>
   <path class="fil0" d="M234.56 15.88l0 42.49c0,0.51 0.29,0.77 0.88,0.77l6.19 0c0.56,0 0.63,-0.71 0.63,-1.21l0 -45.34c0,-1.54 -2.08,0.1 -4.26,1.13 -0.71,0.33 -3.44,1.47 -3.44,2.16z"/>
   <polygon class="fil2" points="234.56,3.73 242.27,0 242.27,6.85 234.56,10.57 "/>
   <polygon class="fil3" points="234.56,5.33 242.27,1.6 242.27,8.45 234.56,12.18 "/>
   <polygon class="fil4" points="234.55,9.12 242.26,5.4 242.26,12.25 234.55,15.97 "/>
   <path class="fil5" d="M59.05 81.29l9.74 0 0 -2.5 -6.95 0 0 -2.68 6.03 0 0 -2.5 -6.03 0 0 -2.6 6.85 0 0 -2.5 -9.64 0 0 12.78zm29.47 0l2.77 0 0 -8.12 6.19 8.12 2.4 0 0 -12.78 -2.78 0 0 7.87 -5.99 -7.87 -2.59 0 0 12.78zm31.65 0l9.74 0 0 -2.5 -6.94 0 0 -2.68 6.03 0 0 -2.5 -6.03 0 0 -2.6 6.85 0 0 -2.5 -9.65 0 0 12.78zm29.47 0l2.81 0 0 -4.09 2.21 0 2.74 4.09 3.29 0 -3.12 -4.56c1.62,-0.6 2.74,-1.9 2.74,-3.96l0 -0.04c0,-1.21 -0.39,-2.21 -1.1,-2.92 -0.84,-0.84 -2.1,-1.3 -3.73,-1.3l-5.84 0 0 12.78zm2.81 -6.57l0 -3.67 2.8 0c1.37,0 2.21,0.62 2.21,1.82l0 0.04c0,1.08 -0.79,1.81 -2.16,1.81l-2.85 0zm33.78 6.79c2.34,0 4.15,-0.91 5.46,-2.02l0 -5.56 -5.55 0 0 2.43 2.83 0 0 1.83c-0.71,0.51 -1.63,0.77 -2.65,0.77 -2.26,0 -3.87,-1.72 -3.87,-4.06l0 -0.03c0,-2.18 1.62,-3.99 3.67,-3.99 1.48,0 2.36,0.48 3.34,1.3l1.77 -2.14c-1.33,-1.13 -2.72,-1.75 -5.02,-1.75 -3.87,0 -6.7,2.98 -6.7,6.61l0 0.04c0,3.78 2.74,6.57 6.72,6.57zm25.52 -0.22l2.81 0 0 -12.78 -2.81 0 0 12.78zm22.14 0l2.87 0 1.17 -2.86 5.4 0 1.17 2.86 2.94 0 -5.48 -12.87 -2.59 0 -5.48 12.87zm5.04 -5.35l1.7 -4.14 1.7 4.14 -3.4 0z"/>
   <path class="fil1" d="M316.19 13.39c2.95,0 5.29,-2.43 5.29,-5.32l0 -0.03c0,-2.89 -2.31,-5.3 -5.29,-5.3 -2.95,0 -5.3,2.44 -5.3,5.33l0 0.03c0,2.89 2.32,5.29 5.3,5.29zm0 -0.57c-2.68,0 -4.69,-2.14 -4.69,-4.72l0 -0.03c0,-2.59 2.04,-4.75 4.69,-4.75 2.68,0 4.69,2.13 4.69,4.72l0 0.03c0,2.58 -2.04,4.75 -4.69,4.75zm-2.07 -2.17l1.03 0 0 -1.85 1.13 0 1.28 1.85 1.25 0 -1.43 -2.03c0.73,-0.22 1.24,-0.77 1.24,-1.65 0,-1.12 -0.88,-1.7 -2.07,-1.7l-2.43 0 0 5.38zm1.03 -2.7l0 -1.77 1.31 0c0.7,0 1.1,0.3 1.1,0.88 0,0.52 -0.4,0.89 -1.1,0.89l-1.31 0z"/>
  </g>
 </g>
</svg>
