<?xml version="1.0" encoding="UTF-8"?>
<!DOCTYPE svg PUBLIC "-//W3C//DTD SVG 1.1//EN" "http://www.w3.org/Graphics/SVG/1.1/DTD/svg11.dtd">
<!-- Creator: CorelDRAW -->
<svg xmlns="http://www.w3.org/2000/svg" xml:space="preserve" width="526.983mm" height="133.615mm" version="1.1" style="shape-rendering:geometricPrecision; text-rendering:geometricPrecision; image-rendering:optimizeQuality; fill-rule:evenodd; clip-rule:evenodd"
viewBox="0 0 52698.34 13361.46"
 xmlns:xlink="http://www.w3.org/1999/xlink"
 xmlns:xodm="http://www.corel.com/coreldraw/odm/2003">
 <defs>
  <style type="text/css">
   <![CDATA[
    .fil3 {fill:#00A859}
    .fil4 {fill:#00AFEF}
    .fil2 {fill:#FFF212}
    .fil0 {fill:white}
    .fil5 {fill:#009D53;fill-rule:nonzero}
    .fil1 {fill:white;fill-rule:nonzero}
   ]]>
  </style>
 </defs>
 <g id="Camada_x0020_1">
  <metadata id="CorelCorpID_0Corel-Layer"/>
  <g id="_2757093601888">
   <path class="fil0" d="M-0 9683l0 -9166.64 3639.12 0c821.26,0 1449.09,42.62 1881.85,131.14 604.88,121.3 1121.24,340.96 1549.08,657.34 558.98,409.81 973.71,929.45 1249.1,1565.48 278.67,636.03 416.37,1363.85 416.37,2180.19 0,696.68 -93.44,1313.03 -280.31,1850.7 -186.87,537.67 -427.84,983.54 -721.27,1335.98 -295.06,352.44 -614.72,629.47 -963.87,829.46 -345.88,203.27 -767.17,357.35 -1258.94,460.63 -493.41,104.91 -1060.59,155.73 -1699.89,155.73l-3811.24 0 0 0 0 -0.01zm1401.55 -1075.34l2252.32 0c696.68,0 1242.55,-55.73 1639.24,-168.84 395.06,-113.11 709.79,-270.47 945.84,-475.38 329.49,-288.51 588.49,-675.37 772.08,-1162.22 185.23,-486.85 278.67,-1075.34 278.67,-1768.74 0,-960.6 -181.96,-1698.25 -544.23,-2214.62 -360.63,-516.36 -801.59,-862.24 -1319.59,-1037.64 -373.75,-126.22 -976.99,-188.51 -1808.08,-188.51l-2216.25 0 0 7015.95 0 0z"/>
   <path class="fil1" d="M16448.15 9873.15l-2781.79 -9166.64 1450.73 0 1583.51 6011.1c173.76,629.47 326.21,1254.02 455.71,1873.65 278.67,-978.63 440.96,-1540.89 486.85,-1690.06l1996.6 -6194.69 1685.14 0 1514.66 4640.69c372.11,1152.39 647.5,2234.29 824.54,3244.06 139.34,-578.65 319.65,-1242.55 537.67,-1991.68l1650.72 -5893.07 1404.83 0 -2893.26 9166.64 -1358.93 0 -2216.25 -6984.81c-186.87,-583.57 -299.98,-942.56 -342.6,-1075.34 -119.66,419.65 -227.85,777 -321.29,1073.7l-2216.25 6986.45 -1460.56 0 0 0 -0.03 0z"/>
   <polygon class="fil1" points="45100.45,9605.96 45100.45,1514.66 41617.07,1514.66 41617.07,439.32 49983.75,439.32 49983.75,1514.66 46502,1514.66 46502,9605.96 "/>
   <polygon class="fil0" points="11128.81,509.8 11464.86,509.8 11464.86,9666.61 11128.81,9666.61 "/>
   <path class="fil0" d="M29053.92 6404.52l0 -501.61c0,-119.66 224.58,-647.5 283.59,-734.38 145.89,-222.94 304.9,-390.14 511.44,-560.62 932.73,-775.36 2490.01,-704.87 3319.46,27.87 306.54,270.47 747.49,872.08 747.49,1380.24l0 2076.92c0,77.04 -19.67,86.88 -26.23,159.01 -1101.57,0 -2437.55,93.44 -3298.15,-149.17 -524.56,-147.53 -1135.99,-667.17 -1329.42,-1104.85 -27.87,-65.57 -208.18,-540.95 -208.18,-593.41zm2127.73 3262.09l4206.29 0c62.29,0 104.91,-39.34 104.91,-91.8l0 -3991.55c0,-270.47 -340.96,-937.65 -465.54,-1145.83 -558.98,-945.84 -2026.1,-1819.56 -3345.69,-1819.56l-419.65 0c-1078.62,0 -2122.82,581.93 -2685.08,1047.48 -265.56,221.3 -636.03,678.65 -791.75,999.94 -275.39,567.18 -309.82,647.5 -309.82,1442.53l0 72.13c1.64,717.99 9.84,850.77 278.67,1375.32 208.18,408.17 452.43,713.07 775.36,1014.69 255.72,237.69 747.49,575.37 1117.96,717.99 316.37,122.94 1119.6,378.66 1534.33,378.66l0 0 0.01 0z"/>
   <path class="fil0" d="M38450.05 2603.12l0 6965.14c0,83.6 47.54,126.22 144.25,126.22l1014.69 0c91.8,0 103.27,-116.39 103.27,-198.35l0 -7432.32c0,-252.44 -340.96,16.39 -698.32,185.23 -116.39,54.09 -563.9,240.97 -563.9,354.08l0.01 0z"/>
   <polygon class="fil2" points="38450.05,611.44 39713.91,0 39713.91,1122.88 38450.05,1732.68 "/>
   <polygon class="fil3" points="38450.05,873.72 39713.91,262.28 39713.91,1385.16 38450.05,1996.6 "/>
   <polygon class="fil4" points="38448.41,1494.99 39712.27,885.19 39712.27,2008.07 38448.41,2617.87 "/>
   <path class="fil5" d="M9679.72 13325.4l1596.62 0 0 -409.81 -1139.27 0 0 -439.32 988.46 0 0 -409.81 -988.46 0 0 -426.2 1122.88 0 0 -409.81 -1580.23 0 0 2094.95zm4830.85 0l454.07 0 0 -1331.06 1014.69 1331.06 393.42 0 0 -2094.95 -455.71 0 0 1290.08 -981.91 -1290.08 -424.56 0 0 2094.95zm5188.2 0l1596.62 0 0 -409.81 -1137.63 0 0 -439.32 988.46 0 0 -409.81 -988.46 0 0 -426.2 1122.88 0 0 -409.81 -1581.87 0 0 2094.95zm4830.84 0l460.63 0 0 -670.45 362.27 0 449.15 670.45 539.31 0 -511.44 -747.49c265.56,-98.35 449.15,-311.46 449.15,-649.14l0 -6.56c0,-198.35 -63.93,-362.27 -180.32,-478.66 -137.7,-137.7 -344.24,-213.1 -611.44,-213.1l-957.32 0 0 2094.95 0.01 0zm460.63 -1076.99l0 -601.6 458.99 0c224.58,0 362.27,101.63 362.27,298.34l0 6.56c0,177.04 -129.5,296.7 -354.08,296.7l-467.18 0zm5537.36 1113.05c383.58,0 680.29,-149.17 895.03,-331.13l0 -911.42 -909.78 0 0 398.34 463.91 0 0 299.98c-116.39,83.6 -267.2,126.22 -434.4,126.22 -370.47,0 -634.39,-281.95 -634.39,-665.53l0 -4.92c0,-357.35 265.56,-654.06 601.6,-654.06 242.61,0 386.86,78.68 547.51,213.1l290.15 -350.8c-218.02,-185.23 -445.87,-286.87 -822.9,-286.87 -634.39,0 -1098.29,488.49 -1098.29,1083.54l0 6.56c0,619.63 449.15,1076.98 1101.57,1076.98l-0.01 0.01zm4183.34 -36.06l460.63 0 0 -2094.95 -460.63 0 0 2094.95zm3629.28 0l470.46 0 191.79 -468.82 885.19 0 191.79 468.82 481.94 0 -898.3 -2109.7 -424.56 0 -898.3 2109.7 -0.01 0zm826.18 -877l278.67 -678.65 278.67 678.65 -557.34 0z"/>
   <path class="fil1" d="M51831.18 2194.95c483.58,0 867.16,-398.34 867.16,-872.08l0 -4.92c0,-473.74 -378.66,-868.8 -867.16,-868.8 -483.58,0 -868.8,399.97 -868.8,873.72l0 4.92c0,473.74 380.3,867.16 868.8,867.16zm0 -93.44c-439.32,0 -768.8,-350.8 -768.8,-773.72l0 -4.92c0,-424.56 334.41,-778.64 768.8,-778.64 439.32,0 768.8,349.16 768.8,773.72l0 4.92c0,422.92 -334.41,778.64 -768.8,778.64zm-339.32 -355.72l168.84 0 0 -303.26 185.23 0 209.82 303.26 204.91 0 -234.41 -332.77c119.66,-36.06 203.27,-126.22 203.27,-270.47 0,-183.6 -144.25,-278.67 -339.32,-278.67l-398.34 0 0 881.91zm168.84 -442.59l0 -290.15 214.74 0c114.75,0 180.32,49.18 180.32,144.25 0,85.24 -65.57,145.89 -180.32,145.89l-214.74 0 0 0.01z"/>
  </g>
 </g>
</svg>
